# xmcd
#
# Track frame offsets:
#	150
#	18624
#	37925
#	57933
#	73696
#	93331
#	112824
#	134168
#	156112
#	181135
#
# Disc length: 2689 seconds
#
# Revision: 1
# Processed by: cddbd v1.5.1PL2 Copyright (c) Steve Scherf et al.
# Submitted via: audiograbber 1.83.01
#
DISCID=810a7f0a
DTITLE=Nel.lo y la Banda del Zoco - Derechito al infierno
DYEAR=1998
DGENRE=Rock
TTITLE0=Derechito al infierno
TTITLE1=Palabras vacías
TTITLE2=En la calle
TTITLE3=Carta a Filippo
TTITLE4=El olor del silencio
TTITLE5=La ciudad de las mentiras
TTITLE6=La semilla
TTITLE7=Blues ingrato (salta)
TTITLE8=Casino Caín
TTITLE9=Renegado
EXTD=
EXTT0=
EXTT1=
EXTT2=
EXTT3=
EXTT4=
EXTT5=
EXTT6=
EXTT7=
EXTT8=
EXTT9=
PLAYORDER=
